# xmcd
#
# Track frame offsets:
#	150
#	16053
#	22806
#	33759
#	45496
#	56623
#	68097
#	96056
#	108208
#	119048
#	129264
#	142615
#	156063
#	182744
#	201880
#
# Disc length: 2923 seconds
#
# Revision: 0
# Processed by: cddbd v1.5.2PL0 Copyright (c) Steve Scherf et al.
# Submitted via: EZCDAudioConverter 2.1.7.1
#
DISCID=b30b690f
DTITLE=Air - The Virgin Suicides 1/2
DYEAR=1900
DGENRE=
TTITLE0=Playground Love
TTITLE1=Clouds Up
TTITLE2=Bathroom Girl
TTITLE3=Cemetary Party
TTITLE4=Dark Messages
TTITLE5=The Word 'Hurricane'
TTITLE6=Dirty Trip
TTITLE7=Highschool Lover
TTITLE8=Afternoon Sister
TTITLE9=Ghost Song
TTITLE10=Empty House
TTITLE11=Dead Bodies
TTITLE12=Suicide Underground
TTITLE13=Bathroom Girl [Demo]
TTITLE14=Playground Love [Vibraphone Version]
EXTD=
EXTT0=
EXTT1=
EXTT2=
EXTT3=
EXTT4=
EXTT5=
EXTT6=
EXTT7=
EXTT8=
EXTT9=
EXTT10=
EXTT11=
EXTT12=
EXTT13=
EXTT14=
PLAYORDER=
